HIERARCHY
ROOT hip
{
	OFFSET 0.000000 0.000000 0.000000 
	CHANNELS 6 Xposition Yposition Zposition Xrotation Zrotation Yrotation
	JOINT abdomen
	{
		OFFSET 0.000000 3.402643 0.000000 
		CHANNELS 3 Xrotation Zrotation Yrotation
		JOINT chest
		{
			OFFSET 0.000000 8.438565 -0.680529 
			CHANNELS 3 Xrotation Zrotation Yrotation
			JOINT neck
			{
				OFFSET 0.000000 10.207942 -0.272212 
				CHANNELS 3 Xrotation Zrotation Yrotation
				JOINT head
				{
					OFFSET 0.000000 3.130431 0.000000 
					CHANNELS 3 Xrotation Zrotation Yrotation
					End Site
					{
						OFFSET 0.000000 3.130435 0.000000 
					}
				}
			}
			JOINT lCollar
			{
				OFFSET 3.470700 6.669187 -0.816635 
				CHANNELS 3 Yrotation Zrotation Xrotation
				JOINT lShldr
				{
					OFFSET 3.198488 0.000000 0.000000 
					CHANNELS 3 Zrotation Yrotation Xrotation
					JOINT lForeArm
					{
						OFFSET 10.139888 0.000000 0.000000 
						CHANNELS 3 Yrotation Zrotation Xrotation
						JOINT lHand
						{
							OFFSET 8.370511 0.000000 0.000000 
							CHANNELS 3 Zrotation Yrotation Xrotation
							End Site
							{
								OFFSET 4.083176 0.000000 0.000000 
							}
						}
					}
				}
			}
			JOINT rCollar
			{
				OFFSET -3.470700 6.669187 -0.816635 
				CHANNELS 3 Yrotation Zrotation Xrotation
				JOINT rShldr
				{
					OFFSET -3.198488 0.000000 0.000000 
					CHANNELS 3 Zrotation Yrotation Xrotation
					JOINT rForeArm
					{
						OFFSET -10.139888 0.000000 0.000000 
						CHANNELS 3 Yrotation Zrotation Xrotation
						JOINT rHand
						{
							OFFSET -8.370511 0.000000 0.000000 
							CHANNELS 3 Zrotation Yrotation Xrotation
							End Site
							{
								OFFSET -4.083176 0.000000 0.000000 
							}
						}
					}
				}
			}
		}
	}
	JOINT lThigh
	{
		OFFSET 5.308129 -1.633274 1.361059 
		CHANNELS 3 Xrotation Zrotation Yrotation
		JOINT lShin
		{
			OFFSET -2.041588 -20.007561 0.000000 
			CHANNELS 3 Xrotation Zrotation Yrotation
			JOINT lFoot
			{
				OFFSET 0.000000 -19.190928 -1.224953 
				CHANNELS 3 Xrotation Yrotation Zrotation
				End Site
				{
					OFFSET 0.000000 -2.449906 4.627600 
				}
			}
		}
	}
	JOINT rThigh
	{
		OFFSET -5.308129 -1.633274 1.361059 
		CHANNELS 3 Xrotation Zrotation Yrotation
		JOINT rShin
		{
			OFFSET 2.041588 -20.007561 0.000000 
			CHANNELS 3 Xrotation Zrotation Yrotation
			JOINT rFoot
			{
				OFFSET 0.000000 -19.190928 -1.224953 
				CHANNELS 3 Xrotation Yrotation Zrotation
				End Site
				{
					OFFSET 0.000000 -2.449906 4.627600 
				}
			}
		}
	}
}
MOTION
Frames: 20
Frame Time: 0.033333
-22.185928 48.865864 -10.482899 -3.359657 0.740912 89.507294 0.000000 0.000000 0.000000 6.699678 -0.669227 4.345109 7.744225 -4.220068 17.950905 -4.287415 -0.390300 11.935028 -2.879440 -5.996266 6.350700 -56.599903 -1.784469 -7.121953 -98.200516 5.070020 38.141891 -9.241142 -0.604272 -3.110003 10.855162 6.048943 6.410622 52.957863 -14.694548 2.003575 112.047890 -1.650567 31.139174 -4.527392 -1.146140 -3.556690 -4.423237 12.223605 5.592300 12.232642 0.844474 -36.208149 -10.399691 -0.048980 0.354777 2.664420 -12.858137 -7.902873 7.681960 0.222878 -0.350488 0.341837 0.008093 10.129896 
-22.065308 48.722523 -9.783587 -2.764360 1.277809 92.409027 0.000000 0.000000 0.000000 7.305103 -0.610241 4.413860 7.974387 -4.697042 17.901596 -4.179719 0.123806 11.368395 -2.702498 -6.816952 6.881301 -56.576027 -0.476278 -13.710010 -97.628555 4.298218 39.176708 -9.123312 0.574778 -3.229588 10.451801 5.904878 7.005015 51.680492 -9.018466 1.699976 111.723289 -1.748653 32.295319 -4.363764 -1.262863 -3.548155 -4.587542 12.325961 5.272933 12.396430 1.407491 -38.989006 -10.976333 -0.000865 -0.163020 4.713343 -13.411108 -7.701882 6.034722 -0.851188 1.772990 -0.899740 -0.085850 10.899256 
-22.012123 48.545219 -9.080251 -1.826560 1.181040 95.411568 0.000000 0.000000 0.000000 7.490746 -0.668078 4.706972 8.140452 -5.186149 17.782724 -3.994280 0.266855 10.711848 -2.278573 -7.473801 7.027960 -56.520996 0.143692 -19.294001 -96.657219 3.717559 40.375130 -8.740521 1.307418 -3.298372 10.279720 4.997520 7.242310 50.520691 -3.962707 1.379997 111.288605 -1.703352 31.594061 -4.409231 -1.314703 -3.550900 -5.214358 11.843855 4.323020 11.757592 2.058582 -40.654327 -11.049030 0.121829 -1.533600 6.596824 -14.406565 -7.975241 3.879919 -1.755659 5.368144 -2.482066 -0.246579 11.700788 
-22.003609 48.363243 -8.244527 -1.582583 1.513095 98.288292 0.000000 0.000000 0.000000 7.920053 -0.328864 4.934662 8.719333 -4.451844 17.765615 -4.014836 -0.771912 10.875908 -1.973508 -6.453275 7.458327 -57.287704 0.576259 -24.482670 -95.864388 3.280547 42.750935 -8.133787 1.249724 -3.310537 10.678287 6.048881 7.508378 48.727570 1.226632 0.108677 110.911224 -1.627340 30.542475 -4.399232 -1.470633 -3.551150 -5.680302 12.247859 3.810397 11.346898 2.977969 -42.727596 -11.362891 0.297909 -3.194775 8.592674 -14.452765 -7.942375 2.184073 -1.970469 8.743173 -3.902774 -0.463160 13.670616 
-21.978374 48.201283 -7.280319 -1.182247 1.835547 100.528557 0.000000 0.000000 0.000000 8.427850 -0.299465 5.521986 9.253320 -4.188641 18.283833 -4.008913 -1.601057 11.119773 -1.428087 -5.987234 7.926159 -57.384369 0.887968 -29.252361 -95.474831 2.804157 44.334705 -7.452702 1.264715 -3.318358 11.019928 6.279943 7.942481 47.106949 6.383998 -0.411217 110.439934 -1.720419 31.781458 -4.263204 -1.461925 -3.543475 -5.477560 12.545445 3.597148 10.086104 3.518998 -44.408512 -11.426486 0.449053 -4.726500 9.549650 -14.384765 -7.930308 2.351047 -2.079084 9.157045 -5.816947 -0.805688 15.940157 
-22.009748 48.028378 -6.224117 -0.517778 1.591732 102.485626 0.000000 0.000000 0.000000 8.730504 -0.164092 6.254070 9.569850 -4.565210 19.190313 -4.882432 -2.117743 11.405839 -0.761721 -5.787723 8.194912 -57.178417 1.088029 -33.290733 -96.042358 2.133770 44.358963 -6.363101 2.035005 -3.395840 11.084254 5.197748 8.262307 45.356346 11.683039 -0.143191 110.121338 -1.881232 33.583199 -4.143117 -1.356396 -3.545848 -5.633462 12.799112 3.348455 8.260593 3.958317 -45.937862 -11.312079 0.615437 -6.421844 9.997946 -13.748608 -8.333714 2.386203 -1.461746 6.176435 -7.802051 -1.103386 16.026293 
-22.083660 47.910343 -5.106720 -0.547130 1.747967 104.309486 0.000000 0.000000 0.000000 9.306813 0.346935 6.892850 10.059573 -4.295851 20.211287 -6.005973 -2.939087 12.035240 -0.300859 -5.097059 8.695552 -56.911091 1.643984 -37.683525 -98.097504 1.227096 45.135548 -5.185466 2.400782 -3.437190 11.416977 4.934289 8.690814 43.141018 17.184172 -1.011703 110.321228 -1.817772 32.931602 -4.180740 -1.378370 -3.548050 -5.310545 13.509292 3.365308 5.878843 4.657511 -46.987019 -10.954272 0.774024 -8.277122 10.530557 -11.957504 -8.676881 2.043880 -0.186601 0.243972 -8.525282 -1.030123 14.129430 
-22.191980 47.822750 -3.941400 -0.791303 1.542822 106.257996 0.000000 0.000000 0.000000 9.571298 0.818525 7.276813 10.098123 -3.722927 21.156580 -5.787680 -3.405573 12.659992 0.226806 -4.599156 8.917708 -56.070850 2.232781 -41.836933 -101.371643 0.278438 47.031025 -3.547276 2.519914 -3.457419 12.653915 5.710472 8.748994 40.938309 21.842724 -3.457038 111.487350 -1.953426 34.472755 -4.044080 -1.379436 -3.540341 -5.370798 14.158039 3.137771 2.971351 5.500349 -47.424355 -10.229216 0.928594 -10.509317 8.726569 -10.181775 -7.929381 4.825883 0.455827 -5.020289 -9.579657 -1.056746 12.617717 
-22.300861 47.715652 -2.746534 -1.768311 1.649605 108.005737 0.000000 0.000000 0.000000 9.820159 1.943775 7.973241 10.249367 -2.821685 22.330973 -5.341442 -4.227575 13.303838 0.736873 -3.695740 9.068689 -54.928108 2.787197 -44.867897 -106.071175 -0.649562 48.465385 0.696869 4.459046 -3.472601 13.453696 6.866215 8.643171 38.019249 27.037006 -5.106863 112.934761 -2.353874 39.931293 -3.597249 -1.194495 -3.543381 -6.256955 15.558054 3.043530 1.808899 6.569026 -48.110237 -10.249599 1.040789 -11.848919 5.818147 -7.946678 -5.985534 9.634493 0.574050 -7.802697 -11.685303 -1.221621 11.684856 
-22.445826 47.670612 -1.647636 -2.501953 2.263468 108.856277 0.000000 0.000000 0.000000 10.552837 3.110653 8.968066 10.605733 -2.227957 23.902246 -5.163488 -5.122757 14.026064 2.369913 -3.595127 9.533505 -52.018852 2.584342 -46.922688 -110.850578 -1.301636 48.789803 8.512230 6.245008 -3.332135 14.244637 7.395293 8.940592 34.573395 33.968082 -6.022241 113.257492 -2.597872 43.258286 -3.387242 -0.965958 -3.540115 -6.862093 16.935020 3.275552 1.875197 7.274453 -47.843376 -10.315524 1.072812 -11.986670 4.168797 -6.015156 -4.876107 12.605487 0.926221 -9.218003 -12.930964 -1.230768 10.604717 
-22.661985 47.724716 -0.650002 -3.029607 2.213701 110.029434 0.000000 0.000000 0.000000 10.965430 4.065282 9.722598 10.493982 -1.984684 25.322454 -4.788780 -5.026266 14.407578 3.999579 -3.420830 9.683848 -47.822689 1.031759 -48.672958 -113.600342 -1.475987 50.366436 13.756875 5.028648 -3.318473 15.342695 7.143692 8.940477 31.027008 41.278702 -7.585325 112.592598 -2.766348 45.152195 -3.447037 -0.637039 -3.542025 -7.917798 17.738510 3.671416 1.838833 6.830749 -44.838730 -8.439990 0.851781 -11.901820 2.994387 -4.789356 -4.911029 13.569724 1.970075 -10.087502 -13.241075 -1.076053 9.077049 
-22.874504 47.817085 0.282670 -3.137192 2.252482 111.507530 0.000000 0.000000 0.000000 11.504680 4.737309 10.573150 10.699512 -1.736488 26.512012 -4.919015 -4.681589 14.424718 4.455398 -2.187480 9.958999 -43.141113 -1.927427 -50.765804 -112.884651 -1.433115 52.431774 16.037792 3.717549 -3.444720 16.294542 6.928175 9.082553 27.134542 48.915936 -9.769104 110.468918 -3.130246 49.185703 -3.525312 -0.015735 -3.553696 -8.610734 17.972422 4.348158 1.837854 5.567442 -39.935654 -5.279864 0.489510 -11.031201 2.654685 -4.032203 -5.118669 13.508702 2.759715 -10.486808 -13.165432 -0.923760 7.702070 
-23.026888 47.940666 1.140656 -2.669007 2.711903 112.725334 0.000000 0.000000 0.000000 12.492633 5.149261 11.374221 11.215488 -1.693950 27.630629 -4.995710 -4.594625 14.478864 4.763055 -0.903744 10.690581 -37.548538 -5.586043 -52.216774 -108.015785 -0.861063 54.855724 18.676575 4.307757 -3.350642 17.354965 6.152455 9.680717 23.273386 59.174873 -11.824764 103.312202 -3.392289 55.890759 -3.774984 0.995918 -3.584260 -9.656126 17.739231 4.771587 4.326208 4.266810 -33.871174 -2.734503 0.207309 -8.746110 3.002713 -3.412994 -5.256804 13.084917 3.182327 -11.505837 -12.803462 -0.759014 6.580369 
-23.101173 48.071285 1.913317 -2.063768 3.201052 114.152466 0.000000 0.000000 0.000000 13.361973 5.435642 11.729118 11.849088 -1.487718 28.306395 -4.651090 -4.506111 14.595165 4.936897 0.608158 11.425113 -31.642689 -9.441847 -52.269459 -99.889519 0.642290 57.507454 19.355236 5.250882 -3.200005 17.866951 3.984726 10.401975 15.359957 71.893234 -18.667639 89.300293 -3.892725 61.338295 -4.420260 2.217193 -3.637907 -11.327254 17.127115 4.537913 8.552800 3.355541 -28.548088 -1.192271 0.046109 -6.513813 3.635098 -2.718973 -5.233167 12.312896 3.357625 -13.316781 -12.251208 -0.622538 5.671991 
-23.141191 48.106018 2.540294 -1.262482 3.758856 115.630295 0.000000 0.000000 0.000000 14.125503 5.759196 12.091658 13.049018 -1.375240 28.708822 -5.444220 -4.481571 14.596254 5.038721 1.965058 12.066519 -25.525305 -13.904174 -52.250526 -88.463676 2.900974 60.838211 19.413588 5.000698 -3.238780 18.567356 0.071790 11.112159 -17.867353 80.786934 -52.112026 73.093925 -4.124986 60.844208 -5.130627 3.208883 -3.706358 -11.557647 16.115488 4.171413 10.817984 3.152458 -25.651871 -1.133651 0.041011 -5.277865 3.914268 -2.392137 -5.404157 12.844751 3.432406 -14.666557 -12.451482 -0.590556 5.157334 
-23.173973 48.106651 3.081041 -1.164897 3.964027 116.491920 0.000000 0.000000 0.000000 14.355388 6.274086 12.764199 14.228201 -1.203239 29.513828 -6.649834 -4.023515 14.611132 5.453146 4.362095 12.148486 -21.109407 -17.858278 -52.144894 -75.904427 5.799070 62.412746 20.698881 4.658997 -3.282232 18.803549 -5.599822 11.382653 -69.087601 79.693138 -103.884216 60.425987 -3.736932 57.637905 -5.664187 4.025735 -3.765724 -11.102782 15.935957 4.369170 10.931721 2.922726 -24.546917 -1.666582 0.050878 -4.789643 3.758444 -1.835700 -5.396027 13.142894 3.767803 -15.431046 -12.633316 -0.514841 4.500826 
-23.196058 48.135090 3.563298 -1.223254 3.700330 116.884102 0.000000 0.000000 0.000000 14.249756 6.362267 13.282851 15.274627 -1.353021 30.683758 -7.757550 -3.008063 14.983995 6.166611 6.157445 11.958756 -17.721361 -20.613314 -53.299622 -65.372719 7.659763 61.766563 21.119089 5.524210 -3.129678 18.189423 -10.431044 11.361032 96.458748 104.786972 61.285381 54.812443 -3.259053 51.686039 -5.963072 4.544529 -3.801837 -10.728309 16.106026 4.822883 9.911099 2.536651 -24.378597 -1.207549 0.031989 -4.957667 3.288405 -1.405129 -5.301498 13.026019 3.982647 -16.042027 -12.525192 -0.444967 3.870568 
-23.186897 48.126026 3.936471 -0.948934 3.397973 117.287598 0.000000 0.000000 0.000000 14.258991 5.983134 13.256581 16.376062 -1.870246 31.757692 -9.436561 -2.813761 16.267395 6.460479 6.803333 12.053446 -16.006760 -21.310102 -58.071579 -60.684898 8.616695 61.186100 20.334427 6.824894 -2.930322 17.260632 -12.422039 11.551112 95.331764 107.698105 59.946930 56.350483 -3.013002 47.818302 -6.176633 4.657804 -3.823533 -10.127007 15.966663 4.888515 8.148250 2.523925 -24.721123 -0.546225 0.017971 -5.496337 2.607435 -1.416026 -5.449427 13.748466 4.125999 -16.420576 -12.901855 -0.410126 3.521001 
-23.157602 48.123264 4.219115 -1.037140 3.544343 117.182083 0.000000 0.000000 0.000000 14.606780 5.765815 12.916010 17.037014 -2.300552 33.093369 -10.492369 -2.796425 17.959639 6.241360 6.867838 12.464323 -15.916463 -18.221699 -64.411598 -62.472973 8.255351 60.649361 20.625475 7.337204 -2.829690 16.514215 -12.665250 11.977372 96.688538 109.668015 61.269653 62.340961 -3.113871 48.612221 -6.412593 4.515111 -3.826218 -8.876746 16.425091 5.536990 5.740674 2.448872 -25.039660 0.355021 -0.019959 -6.339061 2.623836 -1.014894 -5.343900 13.677440 4.322279 -16.531458 -12.909909 -0.364361 3.031775 
-23.142763 48.096966 4.417595 -1.301542 3.700220 116.527496 0.000000 0.000000 0.000000 15.014598 5.594586 12.689754 17.182699 -2.898357 34.550220 -11.147931 -2.196809 19.216087 5.907329 5.361100 12.837027 -15.440913 -12.678065 -70.608078 -67.246727 6.919676 61.411755 21.030378 7.515594 -2.788328 17.009396 -11.467231 12.401339 -77.239243 70.114311 -112.847679 70.847748 -3.314014 50.121666 -6.403175 4.075325 -3.815363 -8.026099 17.232784 6.534730 4.324952 2.011446 -24.746206 1.217473 -0.094513 -7.065671 2.408481 -0.546372 -5.090152 13.856751 4.412950 -16.342169 -12.948961 -0.337804 2.729250 
